<svg xmlns="http://www.w3.org/2000/svg" xmlns:xlink="http://www.w3.org/1999/xlink" id="Calque_1" x="0" y="0" version="1.1" viewBox="0 0 57.1 38.2" xml:space="preserve" style="enable-background:new 0 0 57.1 38.2"><style type="text/css">.st0{fill:#e72460}</style><g><path d="M43.9,12.4h-1h-1h-1h-1h-1h-1h-1h-1h-1h-1h-1h-1h-1h-1h-1h-1h-1h-1h-1h-1h-1h-1h-1h-1h-1h-1h-1h-1h-1h-1h0h-1 v1h1v11.4H6.6v13.4h43.9V25.8h6.6V12.4H43.9z M56.1,24.8h-5.6H37.2v1h12.3v11.4H7.6V25.8h5.6h6.7v-1h-5.7V13.4h0h1h1h1h1h1h1h1h1h1 h1h1h1h1h1h1h1h1h1h1h1h1h1h1h1h1h1h1h1h1h12.3V24.8z" class="st0"/><rect width="1" height="1" x="42.9" class="st0"/><rect width="1" height="1" x="16.3" class="st0"/><rect width="1" height="1" x="2" class="st0"/><rect width="1" height="1" x="4.1" class="st0"/><rect width="1" height="1" x="6.1" class="st0"/><rect width="1" height="1" x="14.3" class="st0"/><rect width="1" height="1" x="18.4" class="st0"/><rect width="1" height="1" x="10.2" class="st0"/><rect width="1" height="1" x="12.2" class="st0"/><rect width="1" height="1" x="34.7" class="st0"/><rect width="1" height="1" x="8.2" class="st0"/><rect width="1" height="1" x="28.6" class="st0"/><rect width="1" height="1" x="30.6" class="st0"/><rect width="1" height="1" x="32.7" class="st0"/><rect width="1" height="1" x="36.8" class="st0"/><rect width="1" height="1" x="38.8" class="st0"/><rect width="1" height="1" x="24.5" class="st0"/><rect width="1" height="1" x="22.5" class="st0"/><rect width="1" height="1" x="26.5" class="st0"/><rect width="1" height="1" x="20.4" class="st0"/><rect width="1" height="1" x="40.8" class="st0"/><rect width="1" height="1" class="st0"/><rect width="1" height="1" y="2" class="st0"/><rect width="1" height="1" y="10.3" class="st0"/><rect width="1" height="1" y="4.1" class="st0"/><rect width="1" height="1" y="6.2" class="st0"/><rect width="1" height="1" y="8.3" class="st0"/><rect width="1" height="1" y="12.4" class="st0"/><rect width="1" height="1" x="8.2" y="12.4" class="st0"/><rect width="1" height="1" x="10.2" y="12.4" class="st0"/><rect width="1" height="1" x="4.1" y="12.4" class="st0"/><rect width="1" height="1" x="2" y="12.4" class="st0"/><rect width="1" height="1" x="6.1" y="12.4" class="st0"/><rect width="1" height="1" x="42.9" y="4.1" class="st0"/><rect width="1" height="1" x="42.9" y="6.2" class="st0"/><rect width="1" height="1" x="42.9" y="2" class="st0"/><rect width="1" height="1" x="42.9" y="8.3" class="st0"/><rect width="1" height="1" x="42.9" y="10.3" class="st0"/></g><g><path d="M27,25.2c-0.1-0.4,0-0.7,0-1c0.1-0.3,0.2-0.6,0.4-0.9c0.2-0.3,0.3-0.5,0.5-0.7c0.2-0.2,0.4-0.4,0.6-0.6 c0.2-0.2,0.3-0.4,0.4-0.6c0.1-0.2,0.2-0.4,0.2-0.6c0-0.3-0.1-0.5-0.3-0.7C28.7,20,28.5,20,28.2,20c-0.3,0-0.6,0.1-0.8,0.2 c-0.2,0.1-0.4,0.3-0.7,0.5l-1.6-1.5c0.4-0.5,0.9-0.9,1.5-1.2c0.6-0.3,1.2-0.5,1.9-0.5c0.5,0,0.9,0.1,1.4,0.2s0.8,0.3,1.1,0.5 c0.3,0.2,0.6,0.6,0.7,1c0.2,0.4,0.3,0.9,0.3,1.4c0,0.4-0.1,0.7-0.2,0.9c-0.1,0.3-0.3,0.5-0.5,0.8c-0.2,0.2-0.4,0.5-0.6,0.7 c-0.2,0.2-0.4,0.4-0.6,0.6c-0.2,0.2-0.3,0.5-0.4,0.7c-0.1,0.3-0.1,0.5-0.1,0.9H27z M28.3,29.7c-0.5,0-0.9-0.2-1.3-0.5 c-0.3-0.4-0.5-0.8-0.5-1.3c0-0.5,0.2-0.9,0.5-1.3c0.3-0.4,0.7-0.5,1.3-0.5s0.9,0.2,1.3,0.5s0.5,0.8,0.5,1.3c0,0.5-0.2,0.9-0.5,1.3 C29.3,29.5,28.9,29.7,28.3,29.7z" class="st0"/></g></svg>