<svg xmlns="http://www.w3.org/2000/svg" xmlns:xlink="http://www.w3.org/1999/xlink" id="Calque_1" x="0" y="0" version="1.1" viewBox="0 0 44.7 38.7" xml:space="preserve" style="enable-background:new 0 0 44.7 38.7"><style type="text/css">.st0{fill:#e72460}</style><path d="M44.7,38.7H0L22.3,0L44.7,38.7z M1.7,37.7h41.2L22.3,2L1.7,37.7z" class="st0"/><g><path d="M22.3,30.3c-0.5,0-0.9-0.2-1.3-0.5c-0.3-0.4-0.5-0.8-0.5-1.3c0-0.5,0.2-0.9,0.5-1.3c0.3-0.4,0.7-0.5,1.3-0.5 s0.9,0.2,1.3,0.5c0.3,0.4,0.5,0.8,0.5,1.3c0,0.5-0.2,0.9-0.5,1.3C23.3,30.1,22.9,30.3,22.3,30.3z M21.4,25.8l-0.4-4.9l-0.1-2.6h3 l-0.1,2.6l-0.4,4.9H21.4z" class="st0"/></g></svg>